# xmcd
#
# Track frame offsets: 
#        183
#        11440
#        21000
#        31815
#        42085
#        60765
#        70020
#        81460
#        91293
#        101183
#        111623
#        123980
#
# Disc length: 1950 seconds
#
# Revision: 1
# Processed by: cddbd v1.5.2PL0 Copyright (c) Steve Scherf et al.
# Submitted via: ExactAudioCopyFreeDBPlugin 1.0
#
DISCID=91079c0c
DTITLE=Little Richard - Legends in Music
DYEAR=1900
DGENRE=Rhythm and Blues
TTITLE0=Whole Lotta Shakin' Goin' On
TTITLE1=Good Golly Miss Molly
TTITLE2=Tutti Fruitti
TTITLE3=Lucille
TTITLE4=I Don't Know What You Got
TTITLE5=Long Tall Sally
TTITLE6=Baby Face
TTITLE7=She's got it
TTITLE8=Short Fat Fannie
TTITLE9=Hound Dog
TTITLE10=Dock of the Bay
TTITLE11=Chains of Love
EXTD=
EXTT0=
EXTT1=
EXTT2=
EXTT3=
EXTT4=
EXTT5=
EXTT6=
EXTT7=
EXTT8=
EXTT9=
EXTT10=
EXTT11=
PLAYORDER=
